# AST/ASF file generated using VICON BodyLanguage
# -----------------------------------------------
:version 1.10
:name VICON
:units
  mass 1.0
  length 0.45
  angle deg
:documentation
   .ast/.asf automatically generated from VICON data using
   VICON BodyBuilder and BodyLanguage model FoxedUp or BRILLIANT.MOD
:root
   order TX TY TZ RX RY RZ
   axis XYZ
   position 0 0 0  
   orientation 0 0 0 
:bonedata
  begin
     id 1 
     name lhipjoint
     direction 0.722297 -0.617336 0.311742 
     length 2.6635 
     axis 0 0 0  XYZ
  end
  begin
     id 2 
     name lfemur
     direction 0.34202 -0.939693 0  
     length 7.39349  
     axis 0 0 20  XYZ
    dof rx ry rz
    limits (-160.0 20.0)
           (-70.0 70.0)
           (-60.0 70.0)
  end
  begin
     id 3 
     name ltibia
     direction 0.34202 -0.939693 0   
     length 7.36294   
     axis 0 0 20   XYZ
    dof rx
    limits (-10.0 170.0)
  end
  begin
     id 4 
     name lfoot
     direction 0.104879 -0.288152 0.951824   
     length 2.16981   
     axis -90 7.62852e-016 20   XYZ
    dof rx rz
    limits (-45.0 90.0)
           (-70.0 20.0)
  end
  begin
     id 5 
     name ltoes
     direction 1.53586e-011 -4.21895e-011 1   
     length 1.08218   
     axis -90 7.62852e-016 20   XYZ
    dof rx
    limits (-90.0 20.0)
  end
  begin
     id 6 
     name rhipjoint
     direction -0.75102 -0.589393 0.297631   
     length 2.78977  
     axis 0 0 0  XYZ 
  end
  begin
     id 7 
     name rfemur
     direction -0.34202 -0.939693 0   
     length 7.46076   
     axis 0 0 -20   XYZ
    dof rx ry rz
    limits (-160.0 20.0)
           (-70.0 70.0)
           (-70.0 60.0)
  end
  begin
     id 8 
     name rtibia
     direction -0.34202 -0.939693 0   
     length 7.31726   
     axis 0 0 -20   XYZ
    dof rx
    limits (-10.0 170.0)
 end
 begin
     id 9 
     name rfoot
     direction -0.107991 -0.296704 0.948844   
     length 2.09388  
     axis -90 -7.62852e-016 -20   XYZ
    dof rx rz
    limits (-45.0 90.0)
           (-20.0 70.0)
  end
  begin
     id 10 
     name rtoes
     direction -1.53559e-011 -4.21911e-011 1   
     length 1.04433   
     axis -90 -7.62852e-016 -20   XYZ
    dof rx
    limits (-90.0 20.0)
  end
  begin
     id 11 
     name lowerback
     direction 0.0165164 0.98272 0.184358   
     length 1.71896   
     axis 0 0 0   XYZ
    dof rx ry rz
    limits (-20.0 45.0)
           (-30.0 30.0)
           (-30.0 30.0)
  end
  begin
     id 12 
     name upperback
     direction -0.00887249 0.992297 0.123566   
     length 1.71504   
     axis 0 0 0   XYZ
    dof rx ry rz
    limits (-20.0 45.0)
           (-30.0 30.0)
           (-30.0 30.0)
  end
  begin
     id 13 
     name thorax
     direction -0.0157026 0.998908 0.0440032   
     length 1.77022   
     axis 0 0 0   XYZ
    dof rx ry rz
    limits (-20.0 45.0)
           (-30.0 30.0)
           (-30.0 30.0)
  end
  begin
     id 14 
     name lowerneck
     direction -0.0238856 0.998137 0.0561411   
     length 1.89341   
     axis 0 0 0   XYZ
    dof rx ry rz
    limits (-20.0 45.0)
           (-30.0 30.0)
           (-30.0 30.0)
  end
  begin
     id 15 
     name upperneck
     direction 0.0276574 0.952253 -0.304056   
     length 1.86999   
     axis 0 0 0   XYZ
    dof rx ry rz
    limits (-20.0 45.0)
           (-30.0 30.0)
           (-30.0 30.0)
  end
  begin
     id 16
     name head
     direction 0.00800083 0.994258 -0.106712  
     length 1.91492  
     axis 0 0 0   XYZ
    dof rx ry rz
    limits (-20.0 45.0)
           (-30.0 30.0)
           (-30.0 30.0)
  end
  begin
     id 17 
     name lclavicle
     direction 0.97203 0.225407 0.06595  
     length 3.34889  
     axis 0 0 0   XYZ
    dof ry rz
    limits (-20.0 10.0)
           (0.0 20.0)
  end
  begin
     id 18 
     name lhumerus
     direction 1 -4.48973e-011 2.20267e-027   
     length 4.85645   
     axis 180 -30 -90   XYZ
    dof rx ry rz
    limits (-60.0 90.0)
           (-90.0 90.0)
           (-90.0 90.0)
  end
  begin
     id 19
     name lradius
     direction 1 -4.4897e-011 4.60472e-027   
     length 2.79874   
     axis 180 -30 -90   XYZ
    dof rx
    limits (-10.0 170.0)
  end
  begin
     id 20
     name lwrist
     direction 1 -4.48952e-011 1.14928e-026   
     length 1.39937   
     axis -6.29373e-015 90 90   XYZ
    dof ry
    limits (-180.0 0.0)
 end
  begin
     id 21 
     name lhand
     direction 1 -4.48967e-011 2.29886e-026   
     length 0.573398   
     axis -1.46689e-014 90 90   XYZ
    dof rx rz
    limits (-90.0 90.0)
           (-45.0 45.0)
  end
  begin
     id 22 
     name lfingers
     direction 1 -4.48955e-011 4.59726e-026   
     length 0.462289   
     axis -2.93383e-014 90 90   XYZ
    dof rx
    limits (0.0 90.0)
  end
  begin
     id 23
     name lthumb
     direction 0.707107 -6.34866e-011 0.707107   
     length 0.663757   
     axis -90 45 5.69224e-014   XYZ
    dof rx rz
    limits (-45.0 45.0)
           (-45.0 45.0)
  end
  begin
     id 24 
     name rclavicle
     direction -0.981571 0.157346 0.108443   
     length 3.35257  
     axis 0 0 0   XYZ 
    dof ry rz
    limits (-10.0 20.0)
           (-20.0 0.0)
  end
  begin
     id 25 
     name rhumerus
     direction -1 -4.48967e-011 8.58308e-029  
     length 4.67018   
     axis 180 30 90   XYZ
    dof rx ry rz
    limits (-90.0 60.0)
           (-90.0 90.0)
           (-90.0 90.0)
  end
  begin
     id 26 
     name rradius
     direction -1 -4.48958e-011 4.52548e-027   
     length 2.65534   
     axis 180 30 90   XYZ
    dof rx
    limits (-10.0 170.0)
  end
  begin
     id 27 
     name rwrist
     direction -1 -4.48977e-011 1.14952e-026   
     length 1.32767   
     axis -6.29373e-015 -90 -90   XYZ
    dof ry
    limits (-180.0 0.0)
  end
  begin
     id 28
     name rhand
     direction -1 -4.48924e-011 2.29804e-026   
     length 0.594069   
     axis -1.46689e-014 -90 -90   XYZ
    dof rx rz
    limits (-90.0 90.0)
           (-45.0 45.0)
  end
  begin
     id 29
     name rfingers
     direction -1 -4.48998e-011 4.59888e-026   
     length 0.478954   
     axis -2.93383e-014 -90 -90   XYZ
    dof rx
    limits (0.0 90.0)
  end
  begin
     id 30
     name rthumb
     direction -0.707107 -6.34933e-011 0.707107   
     length 0.687685   
     axis -90 -45 -5.69224e-014   XYZ
    dof rx rz
    limits (-45.0 45.0)
           (-45.0 45.0)
  end
:hierarchy
  begin
    root lhipjoint rhipjoint lowerback
    lhipjoint lfemur
    lfemur ltibia
    ltibia lfoot
    lfoot ltoes
    rhipjoint rfemur
    rfemur rtibia
    rtibia rfoot
    rfoot rtoes
    lowerback upperback
    upperback thorax
    thorax lowerneck lclavicle rclavicle
    lowerneck upperneck
    upperneck head
    lclavicle lhumerus
    lhumerus lradius
    lradius lwrist
    lwrist lhand lthumb
    lhand lfingers
    rclavicle rhumerus
    rhumerus rradius
    rradius rwrist
    rwrist rhand rthumb
    rhand rfingers
  end

#!OML:ASF E:\pregnant2\Project 1\Capture day 1\Session 1\pregnant2.ASF
:FULLY-SPECIFIED
:DEGREES
217
root -6.49014 17.184 15.1239 27.9212 -2.27891 -5.75253
lowerback -13.8156 0.600406 3.5744
upperback -13.4755 0.530234 1.76516
thorax -6.64662 0.0524924 -0.0819558
lowerneck -9.5295 -0.910059 -3.71644
upperneck 46.4808 -0.622189 0.386714
head 19.671 -0.911988 0.743835
rclavicle -4.17448e-015 5.06901e-015
rhumerus -39.8338 12.4212 -84.6369
rradius 44.1531
rwrist 7.76593
rhand -14.1498 -14.0328
rfingers 7.12502
rthumb 11.9847 -43.6697
lclavicle -4.17448e-015 5.06901e-015
lhumerus -48.7337 5.62094 83.178
lradius 38.2317
lwrist -4.81242
lhand -8.08819 25.1408
lfingers 7.12502
lthumb 17.824 54.3439
rfemur -32.7577 4.62406 28.8767
rtibia 28.2625
rfoot -18.7051 -15.4062
rtoes -1.76127
lfemur -57.8825 -16.5803 2.20969
ltibia 27.2489
lfoot -17.8608 34.5935
ltoes 13.1506
218
root -6.46491 17.1701 15.2105 27.9079 -2.42314 -5.76703
lowerback -13.8193 0.620312 3.54463
upperback -13.4465 0.557086 1.76583
thorax -6.61079 0.0688783 -0.0627696
lowerneck -9.50096 -0.87936 -3.64469
upperneck 46.443 -0.597654 0.386312
head 19.634 -0.889261 0.73481
rclavicle 8.01351e-015 -1.22253e-014
rhumerus -39.9564 12.4445 -84.7174
rradius 44.0348
rwrist 7.93467
rhand -13.9798 -13.9626
rfingers 7.12502
rthumb 12.1486 -43.5899
lclavicle 8.01351e-015 -1.22253e-014
lhumerus -48.8705 5.10401 83.6089
lradius 38.6125
lwrist -4.70513
lhand -8.14934 25.1198
lfingers 7.12502
lthumb 17.7651 54.3283
rfemur -32.5042 4.74867 28.7244
rtibia 28.4356
rfoot -18.9604 -15.5211
rtoes -2.11912
lfemur -57.5239 -16.0467 1.4163
ltibia 27.32
lfoot -17.098 33.9151
ltoes 12.434
219
root -6.43835 17.1562 15.2976 27.8991 -2.58733 -5.76596
lowerback -13.8259 0.642256 3.49816
upperback -13.4209 0.587727 1.76064
thorax -6.57705 0.0881433 -0.0401458
lowerneck -9.46822 -0.851175 -3.57715
upperneck 46.4078 -0.579507 0.392803
head 19.5979 -0.869026 0.728812
rclavicle 1.25483e-015 5.06901e-015
rhumerus -40.1108 12.4564 -84.7913
rradius 43.9335
rwrist 8.09108
rhand -13.7973 -13.908
rfingers 7.12502
rthumb 12.3246 -43.5247
lclavicle 1.25483e-015 5.06901e-015
lhumerus -49.0141 4.53242 84.0808
lradius 38.9908
lwrist -4.57389
lhand -8.23563 25.0872
lfingers 7.12502
lthumb 17.6821 54.3032
rfemur -32.2743 4.87562 28.5449
rtibia 28.6433
rfoot -19.2176 -15.628
rtoes -2.49025
lfemur -57.1457 -15.3932 0.466705
ltibia 27.4738
lfoot -16.0124 33.1645
ltoes 11.779
220
root -6.41059 17.1436 15.3849 27.8986 -2.77331 -5.74039
lowerback -13.835 0.664236 3.42308
upperback -13.401 0.620571 1.74819
thorax -6.54821 0.110332 -0.00900412
lowerneck -9.43188 -0.825287 -3.51342
upperneck 46.3767 -0.567129 0.405503
head 19.564 -0.851077 0.72554
rclavicle -1.13556e-014 2.18663e-014
rhumerus -40.2935 12.4607 -84.8608
rradius 43.8508
rwrist 8.22889
rhand -13.6056 -13.8761
rfingers 7.12502
rthumb 12.5094 -43.4817
lclavicle -1.13556e-014 2.18663e-014
lhumerus -49.1596 3.91748 84.5885
lradius 39.3536
lwrist -4.43802
lhand -8.3506 25.0333
lfingers 7.12502
lthumb 17.5715 54.2593
rfemur -32.0658 5.00866 28.3267
rtibia 28.8684
rfoot -19.4621 -15.7324
rtoes -2.87004
lfemur -56.8023 -14.7515 -0.48269
ltibia 27.6747
lfoot -14.7587 32.5232
ltoes 11.3218
221
root -6.3819 17.1337 15.4723 27.9062 -2.98436 -5.67787
lowerback -13.8419 0.683691 3.30128
upperback -13.3871 0.653943 1.72594
thorax -6.52719 0.135914 0.0378844
lowerneck -9.39012 -0.802009 -3.45296
upperneck 46.3491 -0.559328 0.420397
head 19.5313 -0.83534 0.723114
rclavicle 3.50358e-015 -1.41137e-014
rhumerus -40.5156 12.4536 -84.9233
rradius 43.8055
rwrist 8.3554
rhand -13.3997 -13.8759
rfingers 7.12502
rthumb 12.7079 -43.4692
lclavicle 3.50358e-015 -1.41137e-014
lhumerus -49.3015 3.26209 85.1288
lradius 39.6914
lwrist -4.31123
lhand -8.48313 24.9448
lfingers 7.12502
lthumb 17.4439 54.1822
rfemur -31.8781 5.14887 28.0563
rtibia 29.1044
rfoot -19.6866 -15.84
rtoes -3.255
lfemur -56.5236 -14.2298 -1.32197
ltibia 27.8859
lfoot -13.4866 32.1212
ltoes 11.0871
222
root -6.35262 17.1269 15.5597 27.9217 -3.21534 -5.56707
lowerback -13.8492 0.695756 3.11885
upperback -13.3767 0.682351 1.69224
thorax -6.51 0.163245 0.106091
lowerneck -9.34524 -0.778671 -3.39108
upperneck 46.3244 -0.551422 0.434196
head 19.4997 -0.819506 0.719892
rclavicle 1.72694e-015 -1.04362e-014
rhumerus -40.7699 12.4361 -84.982
rradius 43.7987
rwrist 8.47219
rhand -13.1869 -13.9047
rfingers 7.12502
rthumb 12.9131 -43.4852
lclavicle 1.72694e-015 -1.04362e-014
lhumerus -49.4356 2.57963 85.693
lradius 40.0054
lwrist -4.20756
lhand -8.61082 24.8456
lfingers 7.12502
lthumb 17.321 54.0938
rfemur -31.7136 5.29727 27.7229
rtibia 29.3564
rfoot -19.8987 -15.9598
rtoes -3.62528
lfemur -56.3131 -13.8857 -2.0069
ltibia 28.0742
lfoot -12.3068 31.9722
ltoes 11.1021
223
root -6.32314 17.1227 15.647 27.9432 -3.46031 -5.39731
lowerback -13.8548 0.696158 2.8625
upperback -13.3676 0.701311 1.64576
thorax -6.4954 0.191123 0.201275
lowerneck -9.30631 -0.758421 -3.33616
upperneck 46.3042 -0.548173 0.452758
head 19.4733 -0.8062 0.719469
rclavicle 4.39811e-015 1.0635e-014
rhumerus -41.0523 12.4015 -85.035
rradius 43.8354
rwrist 8.58694
rhand -12.972 -13.9537
rfingers 7.12502
rthumb 13.1201 -43.521
lclavicle 4.39811e-015 1.0635e-014
lhumerus -49.5496 1.87416 86.2773
lradius 40.2891
lwrist -4.12504
lhand -8.71226 24.7551
lfingers 7.12502
lthumb 17.2234 54.0119
rfemur -31.58 5.4495 27.3187
rtibia 29.6384
rfoot -20.1073 -16.1004
rtoes -3.97264
lfemur -56.1498 -13.7023 -2.57651
ltibia 28.2191
lfoot -11.2512 31.9848
ltoes 11.2673
224
root -6.2938 17.1198 15.734 27.9675 -3.70397 -5.17059
lowerback -13.8542 0.683359 2.53905
upperback -13.3586 0.708406 1.58516
thorax -6.48477 0.217728 0.317989
lowerneck -9.2803 -0.744937 -3.28707
upperneck 46.2881 -0.554657 0.474377
head 19.454 -0.797416 0.719875
rclavicle -7.19352e-015 2.51463e-014
rhumerus -41.3768 12.3442 -85.083
rradius 43.9366
rwrist 8.71651
rhand -12.7469 -14.0264
rfingers 7.12502
rthumb 13.3372 -43.5795
lclavicle -7.19352e-015 2.51463e-014
lhumerus -49.6396 1.14624 86.8735
lradius 40.5439
lwrist -4.06464
lhand -8.7806 24.6842
lfingers 7.12502
lthumb 17.1576 53.9467
rfemur -31.4803 5.60072 26.8522
rtibia 29.9663
rfoot -20.3239 -16.273
rtoes -4.29982
lfemur -55.9969 -13.5898 -3.13243
ltibia 28.3183
lfoot -10.2762 31.9611
ltoes 11.661
225
root -6.26493 17.1169 15.8209 27.9875 -3.92901 -4.89651
lowerback -13.8458 0.652035 2.1567
upperback -13.3444 0.696106 1.51958
thorax -6.47322 0.239135 0.460775
lowerneck -9.26879 -0.736424 -3.24606
upperneck 46.2686 -0.565207 0.494581
head 19.4368 -0.791759 0.72031
rclavicle -7.98866e-015 -1.93815e-014
rhumerus -41.7365 12.2731 -85.1233
rradius 44.1076
rwrist 8.88171
rhand -12.5007 -14.1206
rfingers 7.12502
rthumb 13.5745 -43.6581
lclavicle -7.98866e-015 -1.93815e-014
lhumerus -49.7042 0.404788 87.4809
lradius 40.7806
lwrist -4.01272
lhand -8.79628 24.6617
lfingers 7.12502
lthumb 17.1425 53.9254
rfemur -31.4077 5.74471 26.3415
rtibia 30.3499
rfoot -20.5648 -16.4801
rtoes -4.59683
lfemur -55.8207 -13.4359 -3.78914
ltibia 28.3899
lfoot -9.30153 31.7073
ltoes 12.2814
226
root -6.23658 17.1129 15.9076 27.9975 -4.12018 -4.59208
lowerback -13.8223 0.605502 1.74227
upperback -13.3229 0.666792 1.45092
thorax -6.46229 0.254451 0.616846
lowerneck -9.28242 -0.738742 -3.21636
upperneck 46.244 -0.588378 0.514573
head 19.424 -0.792991 0.720411
rclavicle 1.2275e-014 2.64384e-014
rhumerus -42.1312 12.1867 -85.1593
rradius 44.3512
rwrist 9.07867
rhand -12.2459 -14.2199
rfingers 7.12502
rthumb 13.8201 -43.7408
lclavicle 1.2275e-014 2.64384e-014
lhumerus -49.7402 -0.349984 88.0936
lradius 40.9957
lwrist -3.9873
lhand -8.7686 24.6941
lfingers 7.12502
lthumb 17.1692 53.9555
rfemur -31.353 5.87455 25.8117
rtibia 30.7892
rfoot -20.831 -16.716
rtoes -4.85803
lfemur -55.6036 -13.1194 -4.65091
ltibia 28.4636
lfoot -8.23594 31.1047
ltoes 12.9068
